<mxfile host="app.diagrams.net" agent="Mozilla/5.0 (Windows NT 10.0; Win64; x64) AppleWebKit/537.36 (KHTML, like Gecko) Chrome/129.0.0.0 Safari/537.36" version="24.7.17">
  <diagram name="Page-1" id="eoc4MKagsMnlG2iia2Lf">
    <mxGraphModel dx="1050" dy="565" grid="1" gridSize="10" guides="1" tooltips="1" connect="1" arrows="1" fold="1" page="1" pageScale="1" pageWidth="850" pageHeight="1100" math="0" shadow="0">
      <root>
        <mxCell id="0" />
        <mxCell id="1" parent="0" />
        <mxCell id="W7nW2BxCHRV_zjZKXj0f-22" value="activity bedroom" style="swimlane;whiteSpace=wrap;html=1;" parent="1" vertex="1">
          <mxGeometry x="340" y="50" width="440" height="280" as="geometry" />
        </mxCell>
        <mxCell id="W7nW2BxCHRV_zjZKXj0f-23" style="edgeStyle=orthogonalEdgeStyle;rounded=0;orthogonalLoop=1;jettySize=auto;html=1;entryX=0;entryY=0.5;entryDx=0;entryDy=0;" parent="W7nW2BxCHRV_zjZKXj0f-22" source="W7nW2BxCHRV_zjZKXj0f-25" target="W7nW2BxCHRV_zjZKXj0f-29" edge="1">
          <mxGeometry relative="1" as="geometry" />
        </mxCell>
        <mxCell id="W7nW2BxCHRV_zjZKXj0f-24" value="Yes" style="edgeLabel;html=1;align=center;verticalAlign=middle;resizable=0;points=[];" parent="W7nW2BxCHRV_zjZKXj0f-23" vertex="1" connectable="0">
          <mxGeometry x="0.155" y="2" relative="1" as="geometry">
            <mxPoint as="offset" />
          </mxGeometry>
        </mxCell>
        <mxCell id="W7nW2BxCHRV_zjZKXj0f-25" value="Is there user&#39;s desired items?" style="rhombus;whiteSpace=wrap;html=1;" parent="W7nW2BxCHRV_zjZKXj0f-22" vertex="1">
          <mxGeometry x="20" y="110" width="190" height="80" as="geometry" />
        </mxCell>
        <mxCell id="W7nW2BxCHRV_zjZKXj0f-26" style="edgeStyle=orthogonalEdgeStyle;rounded=0;orthogonalLoop=1;jettySize=auto;html=1;entryX=0;entryY=0.5;entryDx=0;entryDy=0;" parent="W7nW2BxCHRV_zjZKXj0f-22" source="W7nW2BxCHRV_zjZKXj0f-25" target="W7nW2BxCHRV_zjZKXj0f-28" edge="1">
          <mxGeometry relative="1" as="geometry" />
        </mxCell>
        <mxCell id="W7nW2BxCHRV_zjZKXj0f-27" value="No" style="edgeLabel;html=1;align=center;verticalAlign=middle;resizable=0;points=[];" parent="W7nW2BxCHRV_zjZKXj0f-26" vertex="1" connectable="0">
          <mxGeometry x="-0.0164" y="-1" relative="1" as="geometry">
            <mxPoint as="offset" />
          </mxGeometry>
        </mxCell>
        <mxCell id="W7nW2BxCHRV_zjZKXj0f-28" value="Add Item" style="ellipse;whiteSpace=wrap;html=1;" parent="W7nW2BxCHRV_zjZKXj0f-22" vertex="1">
          <mxGeometry x="180" y="40" width="120" height="80" as="geometry" />
        </mxCell>
        <mxCell id="W7nW2BxCHRV_zjZKXj0f-29" value="Choose the item" style="ellipse;whiteSpace=wrap;html=1;" parent="W7nW2BxCHRV_zjZKXj0f-22" vertex="1">
          <mxGeometry x="190" y="180" width="120" height="80" as="geometry" />
        </mxCell>
        <mxCell id="W7nW2BxCHRV_zjZKXj0f-31" value="Check all Items" style="ellipse;whiteSpace=wrap;html=1;" parent="W7nW2BxCHRV_zjZKXj0f-22" vertex="1">
          <mxGeometry x="320" y="140" width="120" height="80" as="geometry" />
        </mxCell>
        <mxCell id="W7nW2BxCHRV_zjZKXj0f-48" value="Item Details Screen" style="swimlane;whiteSpace=wrap;html=1;" parent="1" vertex="1">
          <mxGeometry x="340" y="330" width="440" height="280" as="geometry" />
        </mxCell>
        <mxCell id="W7nW2BxCHRV_zjZKXj0f-49" style="edgeStyle=orthogonalEdgeStyle;rounded=0;orthogonalLoop=1;jettySize=auto;html=1;entryX=0;entryY=0.5;entryDx=0;entryDy=0;" parent="W7nW2BxCHRV_zjZKXj0f-48" source="W7nW2BxCHRV_zjZKXj0f-51" target="W7nW2BxCHRV_zjZKXj0f-55" edge="1">
          <mxGeometry relative="1" as="geometry" />
        </mxCell>
        <mxCell id="W7nW2BxCHRV_zjZKXj0f-50" value="Yes" style="edgeLabel;html=1;align=center;verticalAlign=middle;resizable=0;points=[];" parent="W7nW2BxCHRV_zjZKXj0f-49" vertex="1" connectable="0">
          <mxGeometry x="0.155" y="2" relative="1" as="geometry">
            <mxPoint as="offset" />
          </mxGeometry>
        </mxCell>
        <mxCell id="W7nW2BxCHRV_zjZKXj0f-51" value="is the user wish to change the details?" style="rhombus;whiteSpace=wrap;html=1;" parent="W7nW2BxCHRV_zjZKXj0f-48" vertex="1">
          <mxGeometry x="20" y="110" width="190" height="90" as="geometry" />
        </mxCell>
        <mxCell id="W7nW2BxCHRV_zjZKXj0f-52" style="edgeStyle=orthogonalEdgeStyle;rounded=0;orthogonalLoop=1;jettySize=auto;html=1;entryX=0;entryY=0.5;entryDx=0;entryDy=0;" parent="W7nW2BxCHRV_zjZKXj0f-48" source="W7nW2BxCHRV_zjZKXj0f-51" target="W7nW2BxCHRV_zjZKXj0f-54" edge="1">
          <mxGeometry relative="1" as="geometry" />
        </mxCell>
        <mxCell id="W7nW2BxCHRV_zjZKXj0f-53" value="No" style="edgeLabel;html=1;align=center;verticalAlign=middle;resizable=0;points=[];" parent="W7nW2BxCHRV_zjZKXj0f-52" vertex="1" connectable="0">
          <mxGeometry x="-0.0164" y="-1" relative="1" as="geometry">
            <mxPoint as="offset" />
          </mxGeometry>
        </mxCell>
        <mxCell id="W7nW2BxCHRV_zjZKXj0f-54" value="No action needed" style="ellipse;whiteSpace=wrap;html=1;" parent="W7nW2BxCHRV_zjZKXj0f-48" vertex="1">
          <mxGeometry x="180" y="40" width="120" height="80" as="geometry" />
        </mxCell>
        <mxCell id="W7nW2BxCHRV_zjZKXj0f-55" value="Edit details" style="ellipse;whiteSpace=wrap;html=1;" parent="W7nW2BxCHRV_zjZKXj0f-48" vertex="1">
          <mxGeometry x="190" y="180" width="120" height="80" as="geometry" />
        </mxCell>
        <mxCell id="W7nW2BxCHRV_zjZKXj0f-57" value="Check all rooms" style="ellipse;whiteSpace=wrap;html=1;" parent="W7nW2BxCHRV_zjZKXj0f-48" vertex="1">
          <mxGeometry x="310" y="60" width="120" height="80" as="geometry" />
        </mxCell>
        <mxCell id="7I4hs-MUoRhDfMfP-qmd-4" value="Edit Item Page" style="swimlane;whiteSpace=wrap;html=1;" vertex="1" parent="1">
          <mxGeometry x="340" y="610" width="440" height="190" as="geometry" />
        </mxCell>
        <mxCell id="7I4hs-MUoRhDfMfP-qmd-5" value="Fill the details" style="ellipse;whiteSpace=wrap;html=1;" vertex="1" parent="7I4hs-MUoRhDfMfP-qmd-4">
          <mxGeometry x="160" y="90" width="120" height="80" as="geometry" />
        </mxCell>
        <mxCell id="7I4hs-MUoRhDfMfP-qmd-7" style="edgeStyle=orthogonalEdgeStyle;rounded=0;orthogonalLoop=1;jettySize=auto;html=1;exitX=1;exitY=0.5;exitDx=0;exitDy=0;" edge="1" parent="1" source="W7nW2BxCHRV_zjZKXj0f-55" target="7I4hs-MUoRhDfMfP-qmd-5">
          <mxGeometry relative="1" as="geometry" />
        </mxCell>
        <mxCell id="7I4hs-MUoRhDfMfP-qmd-8" style="edgeStyle=orthogonalEdgeStyle;rounded=0;orthogonalLoop=1;jettySize=auto;html=1;exitX=1;exitY=0.5;exitDx=0;exitDy=0;entryX=0;entryY=0.5;entryDx=0;entryDy=0;" edge="1" parent="1" source="W7nW2BxCHRV_zjZKXj0f-29" target="W7nW2BxCHRV_zjZKXj0f-51">
          <mxGeometry relative="1" as="geometry" />
        </mxCell>
        <mxCell id="7I4hs-MUoRhDfMfP-qmd-9" value="Add Item screen" style="swimlane;whiteSpace=wrap;html=1;" vertex="1" parent="1">
          <mxGeometry x="830" y="80" width="440" height="190" as="geometry" />
        </mxCell>
        <mxCell id="7I4hs-MUoRhDfMfP-qmd-10" value="Fill the details" style="ellipse;whiteSpace=wrap;html=1;" vertex="1" parent="7I4hs-MUoRhDfMfP-qmd-9">
          <mxGeometry x="160" y="90" width="120" height="80" as="geometry" />
        </mxCell>
        <mxCell id="7I4hs-MUoRhDfMfP-qmd-11" style="edgeStyle=orthogonalEdgeStyle;rounded=0;orthogonalLoop=1;jettySize=auto;html=1;exitX=1;exitY=1;exitDx=0;exitDy=0;entryX=0;entryY=0.5;entryDx=0;entryDy=0;" edge="1" parent="1" source="W7nW2BxCHRV_zjZKXj0f-28" target="7I4hs-MUoRhDfMfP-qmd-9">
          <mxGeometry relative="1" as="geometry" />
        </mxCell>
        <mxCell id="7I4hs-MUoRhDfMfP-qmd-12" value="Check all items screen" style="swimlane;whiteSpace=wrap;html=1;" vertex="1" parent="1">
          <mxGeometry x="830" y="320" width="440" height="190" as="geometry" />
        </mxCell>
        <mxCell id="7I4hs-MUoRhDfMfP-qmd-13" value="Display the added item details" style="ellipse;whiteSpace=wrap;html=1;" vertex="1" parent="7I4hs-MUoRhDfMfP-qmd-12">
          <mxGeometry x="160" y="90" width="120" height="80" as="geometry" />
        </mxCell>
        <mxCell id="7I4hs-MUoRhDfMfP-qmd-14" style="edgeStyle=orthogonalEdgeStyle;rounded=0;orthogonalLoop=1;jettySize=auto;html=1;exitX=1;exitY=1;exitDx=0;exitDy=0;entryX=0;entryY=0.5;entryDx=0;entryDy=0;" edge="1" parent="1" source="W7nW2BxCHRV_zjZKXj0f-31" target="7I4hs-MUoRhDfMfP-qmd-12">
          <mxGeometry relative="1" as="geometry" />
        </mxCell>
      </root>
    </mxGraphModel>
  </diagram>
</mxfile>
